<svg width="254" height="44" viewBox="0 0 254 44" fill="none" xmlns="http://www.w3.org/2000/svg">
<path fill-rule="evenodd" clip-rule="evenodd" d="M6.89924 23.2019C6.62207 22.2651 6.49474 21.2992 6.49474 20.3116C6.49474 18.6777 6.8543 17.08 7.70078 15.6567C7.90304 15.3227 8.12029 15.0031 8.3675 14.7127C8.12778 14.3931 7.91054 14.0518 7.70828 13.696C6.8618 12.1855 6.49474 10.5225 6.49474 8.81598C6.49474 6.40502 7.22136 4.1393 9.01172 2.41096C10.877 0.617268 13.409 0 15.9784 0H25.1324C26.6381 0 27.8592 1.19096 27.8592 2.64334V4.713C27.8592 6.17265 26.6306 7.35633 25.1324 7.35633H16.1881C15.6338 7.35633 14.7199 7.42169 14.2779 7.80657C13.9258 8.11883 13.8734 8.66349 13.8734 9.10646C13.8734 9.78182 13.9933 10.4499 14.5176 10.9219C15.1244 11.4666 16.0608 11.5828 16.8473 11.5828H25.1324C26.6381 11.5828 27.8592 12.7737 27.8592 14.2261L27.8592 16.2885C27.8592 17.7482 26.6306 18.9318 25.1324 18.9318H16.1881C15.6338 18.9318 14.7199 18.9972 14.2779 19.3821C13.9183 19.7016 13.8734 20.268 13.8734 20.711C13.8734 21.2411 13.9258 21.9165 14.3603 22.3014C15.2293 23.0711 18.4354 23.6158 19.6415 23.9426C22.7428 24.785 25.2748 26.1938 26.7505 29.1276C27.4771 30.58 27.8667 32.1122 27.8667 33.7316C27.8667 35.5689 27.4247 37.3336 26.4883 38.9384C25.5594 40.5288 24.241 41.7851 22.593 42.6783C20.9 43.5933 19.0272 44 17.0946 44C15.1619 44 13.2891 43.5933 11.5961 42.6783C9.94061 41.7851 8.62968 40.5215 7.70828 38.9239C6.78689 37.3263 6.35988 35.5689 6.35988 33.7316C6.35988 32.6424 6.5172 31.5749 6.86179 30.5582H2.72675C1.22105 30.5582 0 29.3672 0 27.9148L0 25.8525C0 24.3928 1.22854 23.2091 2.72675 23.2091H6.89924V23.2019ZM17.5815 30.5509H16.6001C16.0982 30.5945 15.6263 30.7179 15.1768 30.9503C14.7049 31.1972 14.3378 31.524 14.0682 31.9743C13.776 32.4681 13.6636 32.9909 13.6636 33.5574C13.6636 34.1311 13.776 34.6684 14.0682 35.1695C14.3378 35.627 14.7049 35.9465 15.1768 36.1934C15.7686 36.5057 16.4204 36.6146 17.0871 36.6146C17.7538 36.6146 18.4055 36.5057 18.9973 36.1934C19.4692 35.9465 19.8363 35.6197 20.1059 35.1695C20.3981 34.6757 20.5105 34.1311 20.5105 33.5574C20.5105 32.9909 20.3981 32.4681 20.1059 31.9743C19.8363 31.524 19.4692 31.1972 18.9973 30.9503C18.5628 30.7179 18.0834 30.6018 17.5815 30.5509Z" fill="url(#paint0_linear_204_35)"/>
<path d="M59.3619 13.2C59.663 13.2 59.9071 13.4409 59.9071 13.738V34.5147C59.9071 34.8119 59.663 35.0528 59.3619 35.0528H58.4229C58.1218 35.0528 57.8777 34.8119 57.8777 34.5147V33.9218C57.8777 33.377 57.0522 33.1146 56.6425 33.4798C56.2513 33.8284 55.8174 34.127 55.3409 34.3754C54.3063 34.9251 53.1324 35.2 51.8193 35.2C50.3469 35.2 49.0139 34.8662 47.8201 34.1987C46.6263 33.5311 45.6912 32.5985 45.0147 31.4008C44.3382 30.2031 44 28.8386 44 27.3071C44 25.7756 44.3382 24.4111 45.0147 23.2134C45.6912 22.0157 46.6263 21.0929 47.8201 20.445C49.0139 19.7774 50.3469 19.4437 51.8193 19.4437C53.0926 19.4437 54.2367 19.7087 55.2514 20.2388C55.7403 20.4801 56.187 20.7761 56.5915 21.1269C56.9995 21.4809 57.7882 21.2209 57.7882 20.6847V13.738C57.7882 13.4409 58.0323 13.2 58.3334 13.2H59.3619ZM51.9983 33.3446C53.0926 33.3446 54.0775 33.0992 54.9529 32.6083C55.8483 32.0978 56.5447 31.3812 57.0421 30.4584C57.5594 29.5356 57.818 28.4852 57.818 27.3071C57.818 26.1291 57.5594 25.0786 57.0421 24.1558C56.5447 23.233 55.8483 22.5262 54.9529 22.0354C54.0775 21.5249 53.0926 21.2696 51.9983 21.2696C50.8841 21.2696 49.8794 21.5249 48.984 22.0354C48.1086 22.5262 47.4122 23.233 46.8949 24.1558C46.3975 25.0786 46.1488 26.1291 46.1488 27.3071C46.1488 28.4852 46.3975 29.5356 46.8949 30.4584C47.4122 31.3812 48.1086 32.0978 48.984 32.6083C49.8794 33.0992 50.8841 33.3446 51.9983 33.3446Z" fill="url(#paint1_linear_204_35)"/>
<path d="M73.7769 33.3446C74.7519 33.3446 75.6472 33.1777 76.4629 32.8439C77.0987 32.5751 77.6595 32.2153 78.1455 31.7646C78.3884 31.5394 78.7786 31.5357 78.9973 31.7839L79.4711 32.3216C79.6467 32.5208 79.6515 32.8181 79.4667 33.0088C78.8284 33.6675 78.0659 34.1819 77.1792 34.5521C76.1446 34.984 75.0006 35.2 73.7471 35.2C72.1355 35.2 70.7029 34.8662 69.4495 34.1987C68.196 33.5115 67.2211 32.569 66.5247 31.3714C65.8283 30.1737 65.4801 28.8189 65.4801 27.3071C65.4801 25.7953 65.8084 24.4405 66.465 23.2429C67.1415 22.0452 68.0667 21.1126 69.2406 20.445C70.4144 19.7774 71.7475 19.4437 73.2397 19.4437C74.6325 19.4437 75.8859 19.7578 77.0001 20.3861C78.1342 21.0144 79.0296 21.8881 79.6861 23.0072C80.2901 24.0064 80.6403 25.1308 80.7368 26.3804C80.757 26.6428 80.5687 26.8727 80.307 26.9229L68.4658 29.195C68.1467 29.2562 67.9504 29.5787 68.0756 29.8747C68.4952 30.8672 69.1422 31.6704 70.0165 32.2844C71.071 32.9912 72.3245 33.3446 73.7769 33.3446ZM73.2397 21.2402C72.1454 21.2402 71.1606 21.4954 70.2851 22.0059C69.4296 22.4968 68.7531 23.1938 68.2557 24.0969C67.7782 24.9805 67.5394 26.0014 67.5394 27.1599C67.5394 27.1884 67.5395 27.2163 67.5397 27.2434C67.5418 27.5511 67.8258 27.7587 68.1318 27.7L78.1127 25.7886C78.4058 25.7325 78.6013 25.453 78.5229 25.1687C78.2299 24.1058 77.6626 23.2184 76.8211 22.5066C75.8461 21.6623 74.6524 21.2402 73.2397 21.2402Z" fill="url(#paint2_linear_204_35)"/>
<path d="M105.905 19.4437C107.875 19.4437 109.417 20.0032 110.531 21.1224C111.665 22.2415 112.232 23.8908 112.232 26.0702V34.5147C112.232 34.8119 111.988 35.0528 111.687 35.0528H110.658C110.357 35.0528 110.113 34.8119 110.113 34.5147V26.2763C110.113 24.6663 109.715 23.4392 108.919 22.5949C108.143 21.7507 107.039 21.3285 105.607 21.3285C103.975 21.3285 102.692 21.8292 101.757 22.8305C100.822 23.8122 100.354 25.1768 100.354 26.9242V34.5147C100.354 34.8119 100.11 35.0528 99.8088 35.0528H98.7802C98.4791 35.0528 98.235 34.8119 98.235 34.5147V26.2763C98.235 24.6663 97.8371 23.4392 97.0412 22.5949C96.2653 21.7507 95.1511 21.3285 93.6986 21.3285C92.087 21.3285 90.8037 21.8292 89.8487 22.8305C88.9136 23.8122 88.446 25.1768 88.446 26.9242V34.5147C88.446 34.8119 88.2019 35.0528 87.9008 35.0528H86.8722C86.5711 35.0528 86.327 34.8119 86.327 34.5147V20.0995C86.327 19.8023 86.5711 19.5615 86.8722 19.5615H87.8113C88.1124 19.5615 88.3565 19.8023 88.3565 20.0995V20.3987C88.3565 20.9479 89.2232 21.2271 89.6531 20.8784C89.9658 20.6247 90.3095 20.4017 90.6843 20.2094C91.6791 19.6989 92.8232 19.4437 94.1165 19.4437C95.4296 19.4437 96.5637 19.7185 97.5187 20.2683C98.1838 20.6433 98.7332 21.1417 99.1668 21.7635C99.4225 22.1302 100.029 22.16 100.316 21.8164C100.818 21.2139 101.438 20.7175 102.174 20.3272C103.269 19.7382 104.512 19.4437 105.905 19.4437Z" fill="url(#paint3_linear_204_35)"/>
<path d="M126.005 33.3446C126.98 33.3446 127.876 33.1777 128.691 32.8439C129.327 32.5751 129.888 32.2153 130.374 31.7646C130.617 31.5394 131.007 31.5357 131.226 31.7839L131.7 32.3216C131.875 32.5208 131.88 32.8181 131.695 33.0088C131.057 33.6675 130.294 34.1819 129.408 34.5521C128.373 34.984 127.229 35.2 125.976 35.2C124.364 35.2 122.931 34.8662 121.678 34.1987C120.424 33.5115 119.45 32.569 118.753 31.3714C118.057 30.1737 117.709 28.8189 117.709 27.3071C117.709 25.7953 118.037 24.4405 118.693 23.2429C119.37 22.0452 120.295 21.1126 121.469 20.445C122.643 19.7774 123.976 19.4437 125.468 19.4437C126.861 19.4437 128.114 19.7578 129.229 20.3861C130.363 21.0144 131.258 21.8881 131.915 23.0072C132.519 24.0064 132.869 25.1308 132.965 26.3804C132.985 26.6428 132.797 26.8727 132.535 26.9229L120.694 29.195C120.375 29.2562 120.179 29.5787 120.304 29.8747C120.724 30.8672 121.371 31.6704 122.245 32.2844C123.299 32.9912 124.553 33.3446 126.005 33.3446ZM125.468 21.2402C124.374 21.2402 123.389 21.4954 122.514 22.0059C121.658 22.4968 120.982 23.1938 120.484 24.0969C120.007 24.9805 119.768 26.0014 119.768 27.1599C119.768 27.1884 119.768 27.2163 119.768 27.2434C119.77 27.5511 120.054 27.7587 120.36 27.7L130.341 25.7886C130.634 25.7325 130.83 25.453 130.751 25.1687C130.458 24.1058 129.891 23.2184 129.049 22.5066C128.075 21.6623 126.881 21.2402 125.468 21.2402Z" fill="url(#paint4_linear_204_35)"/>
<path d="M146.104 33.7454C146.211 33.9614 146.162 34.2246 145.964 34.3647C145.634 34.5984 145.253 34.7885 144.823 34.935C144.246 35.1117 143.639 35.2 143.002 35.2C141.53 35.2 140.396 34.8073 139.6 34.022C138.804 33.2366 138.406 32.1273 138.406 30.694V16.7126C138.406 16.4155 138.65 16.1746 138.951 16.1746H139.98C140.281 16.1746 140.525 16.4155 140.525 16.7126V19.0234C140.525 19.3206 140.769 19.5615 141.07 19.5615H144.725C145.026 19.5615 145.27 19.8023 145.27 20.0995V20.7905C145.27 21.0877 145.026 21.3285 144.725 21.3285H141.07C140.769 21.3285 140.525 21.5694 140.525 21.8665V30.5762C140.525 31.499 140.754 32.2058 141.212 32.6967C141.669 33.1679 142.336 33.4035 143.211 33.4035C143.878 33.4035 144.457 33.2743 144.949 33.016C145.269 32.8483 145.697 32.9272 145.857 33.2479L146.104 33.7454Z" fill="url(#paint5_linear_204_35)"/>
<path d="M153.409 20.1932C153.409 20.7677 154.435 21.0738 154.89 20.7161C155.116 20.5389 155.358 20.3799 155.617 20.2388C156.485 19.7764 157.527 19.5156 158.743 19.4566C159.044 19.442 159.288 19.6845 159.288 19.9817V20.9742C159.288 21.2463 159.056 21.4623 158.781 21.4463C157.13 21.4463 155.836 21.947 154.901 22.9483C153.966 23.9497 153.498 25.3535 153.498 27.1599V34.5147C153.498 34.8119 153.254 35.0528 152.953 35.0528H151.925C151.624 35.0528 151.38 34.8119 151.38 34.5147V20.0995C151.38 19.8023 151.624 19.5615 151.925 19.5615H152.864C153.165 19.5615 153.409 19.8023 153.409 20.0995V20.1932Z" fill="url(#paint6_linear_204_35)"/>
<path d="M178.013 19.5615C178.314 19.5615 178.558 19.8023 178.558 20.0995V34.5147C178.558 34.8119 178.314 35.0528 178.013 35.0528H177.074C176.773 35.0528 176.529 34.8119 176.529 34.5147V33.9218C176.529 33.377 175.703 33.1146 175.293 33.4798C174.902 33.8284 174.468 34.127 173.992 34.3754C172.957 34.9251 171.783 35.2 170.47 35.2C168.998 35.2 167.665 34.8662 166.471 34.1987C165.277 33.5311 164.342 32.5985 163.666 31.4008C162.989 30.2031 162.651 28.8386 162.651 27.3071C162.651 25.7756 162.989 24.4111 163.666 23.2134C164.342 22.0157 165.277 21.0929 166.471 20.445C167.665 19.7774 168.998 19.4437 170.47 19.4437C171.744 19.4437 172.888 19.7087 173.902 20.2388C174.391 20.4801 174.838 20.7761 175.242 21.1269C175.65 21.4809 176.439 21.2209 176.439 20.6847V20.0995C176.439 19.8023 176.683 19.5615 176.984 19.5615H178.013ZM170.649 33.3446C171.744 33.3446 172.728 33.0992 173.604 32.6083C174.499 32.0978 175.196 31.3812 175.693 30.4584C176.21 29.5356 176.469 28.4852 176.469 27.3071C176.469 26.1291 176.21 25.0786 175.693 24.1558C175.196 23.233 174.499 22.5262 173.604 22.0354C172.728 21.5249 171.744 21.2696 170.649 21.2696C169.535 21.2696 168.53 21.5249 167.635 22.0354C166.76 22.5262 166.063 23.233 165.546 24.1558C165.048 25.0786 164.8 26.1291 164.8 27.3071C164.8 28.4852 165.048 29.5356 165.546 30.4584C166.063 31.3812 166.76 32.0978 167.635 32.6083C168.53 33.0992 169.535 33.3446 170.649 33.3446Z" fill="url(#paint7_linear_204_35)"/>
<path d="M205.291 19.4437C207.261 19.4437 208.803 20.0032 209.917 21.1224C211.051 22.2415 211.618 23.8908 211.618 26.0702V34.5147C211.618 34.8119 211.374 35.0528 211.073 35.0528H210.044C209.743 35.0528 209.499 34.8119 209.499 34.5147V26.2763C209.499 24.6663 209.101 23.4392 208.305 22.5949C207.529 21.7507 206.425 21.3285 204.992 21.3285C203.361 21.3285 202.078 21.8292 201.142 22.8305C200.207 23.8122 199.74 25.1768 199.74 26.9242V34.5147C199.74 34.8119 199.496 35.0528 199.195 35.0528H198.166C197.865 35.0528 197.621 34.8119 197.621 34.5147V26.2763C197.621 24.6663 197.223 23.4392 196.427 22.5949C195.651 21.7507 194.537 21.3285 193.084 21.3285C191.473 21.3285 190.19 21.8292 189.234 22.8305C188.299 23.8122 187.832 25.1768 187.832 26.9242V34.5147C187.832 34.8119 187.588 35.0528 187.287 35.0528H186.258C185.957 35.0528 185.713 34.8119 185.713 34.5147V20.0995C185.713 19.8023 185.957 19.5615 186.258 19.5615H187.197C187.498 19.5615 187.742 19.8023 187.742 20.0995V20.3987C187.742 20.9479 188.609 21.2271 189.039 20.8784C189.352 20.6247 189.695 20.4017 190.07 20.2094C191.065 19.6989 192.209 19.4437 193.502 19.4437C194.815 19.4437 195.95 19.7185 196.905 20.2683C197.57 20.6433 198.119 21.1417 198.553 21.7635C198.808 22.1302 199.415 22.16 199.701 21.8164C200.204 21.2139 200.824 20.7175 201.56 20.3272C202.655 19.7382 203.898 19.4437 205.291 19.4437Z" fill="url(#paint8_linear_204_35)"/>
<path d="M225.391 33.3446C226.366 33.3446 227.261 33.1777 228.077 32.8439C228.713 32.5751 229.274 32.2153 229.76 31.7646C230.003 31.5394 230.393 31.5357 230.612 31.7839L231.085 32.3216C231.261 32.5208 231.266 32.8181 231.081 33.0088C230.443 33.6675 229.68 34.1819 228.793 34.5521C227.759 34.984 226.615 35.2 225.361 35.2C223.75 35.2 222.317 34.8662 221.064 34.1987C219.81 33.5115 218.835 32.569 218.139 31.3714C217.443 30.1737 217.094 28.8189 217.094 27.3071C217.094 25.7953 217.423 24.4405 218.079 23.2429C218.756 22.0452 219.681 21.1126 220.855 20.445C222.029 19.7774 223.362 19.4437 224.854 19.4437C226.247 19.4437 227.5 19.7578 228.614 20.3861C229.748 21.0144 230.644 21.8881 231.3 23.0072C231.904 24.0064 232.255 25.1308 232.351 26.3804C232.371 26.6428 232.183 26.8727 231.921 26.9229L220.08 29.195C219.761 29.2562 219.565 29.5787 219.69 29.8747C220.109 30.8672 220.756 31.6704 221.631 32.2844C222.685 32.9912 223.939 33.3446 225.391 33.3446ZM224.854 21.2402C223.76 21.2402 222.775 21.4954 221.899 22.0059C221.044 22.4968 220.367 23.1938 219.87 24.0969C219.392 24.9805 219.154 26.0014 219.154 27.1599C219.154 27.1884 219.154 27.2163 219.154 27.2434C219.156 27.5511 219.44 27.7587 219.746 27.7L229.727 25.7886C230.02 25.7325 230.216 25.453 230.137 25.1687C229.844 24.1058 229.277 23.2184 228.435 22.5066C227.46 21.6623 226.267 21.2402 224.854 21.2402Z" fill="url(#paint9_linear_204_35)"/>
<path d="M251.721 13.2C252.023 13.2 252.267 13.4409 252.267 13.738V34.5147C252.267 34.8119 252.023 35.0528 251.721 35.0528H250.782C250.481 35.0528 250.237 34.8119 250.237 34.5147V33.9218C250.237 33.377 249.412 33.1146 249.002 33.4798C248.611 33.8284 248.177 34.127 247.7 34.3754C246.666 34.9251 245.492 35.2 244.179 35.2C242.706 35.2 241.373 34.8662 240.18 34.1987C238.986 33.5311 238.051 32.5985 237.374 31.4008C236.698 30.2031 236.36 28.8386 236.36 27.3071C236.36 25.7756 236.698 24.4111 237.374 23.2134C238.051 22.0157 238.986 21.0929 240.18 20.445C241.373 19.7774 242.706 19.4437 244.179 19.4437C245.452 19.4437 246.596 19.7087 247.611 20.2388C248.1 20.4801 248.546 20.7761 248.951 21.1269C249.359 21.4808 250.148 21.2209 250.148 20.6847V13.738C250.148 13.4409 250.392 13.2 250.693 13.2H251.721ZM244.358 33.3446C245.452 33.3446 246.437 33.0992 247.312 32.6083C248.208 32.0978 248.904 31.3812 249.402 30.4584C249.919 29.5356 250.178 28.4852 250.178 27.3071C250.178 26.1291 249.919 25.0786 249.402 24.1558C248.904 23.233 248.208 22.5262 247.312 22.0354C246.437 21.5249 245.452 21.2696 244.358 21.2696C243.244 21.2696 242.239 21.5249 241.344 22.0354C240.468 22.5262 239.772 23.233 239.254 24.1558C238.757 25.0786 238.508 26.1291 238.508 27.3071C238.508 28.4852 238.757 29.5356 239.254 30.4584C239.772 31.3812 240.468 32.0978 241.344 32.6083C242.239 33.0992 243.244 33.3446 244.358 33.3446Z" fill="url(#paint10_linear_204_35)"/>
<path d="M59.3619 13.2C59.663 13.2 59.9071 13.4409 59.9071 13.738V34.5147C59.9071 34.8119 59.663 35.0528 59.3619 35.0528H58.4229C58.1218 35.0528 57.8777 34.8119 57.8777 34.5147V33.9218C57.8777 33.377 57.0522 33.1146 56.6425 33.4798C56.2513 33.8284 55.8174 34.127 55.3409 34.3754C54.3063 34.9251 53.1324 35.2 51.8193 35.2C50.3469 35.2 49.0139 34.8662 47.8201 34.1987C46.6263 33.5311 45.6912 32.5985 45.0147 31.4008C44.3382 30.2031 44 28.8386 44 27.3071C44 25.7756 44.3382 24.4111 45.0147 23.2134C45.6912 22.0157 46.6263 21.0929 47.8201 20.445C49.0139 19.7774 50.3469 19.4437 51.8193 19.4437C53.0926 19.4437 54.2367 19.7087 55.2514 20.2388C55.7403 20.4801 56.187 20.7761 56.5915 21.1269C56.9995 21.4809 57.7882 21.2209 57.7882 20.6847V13.738C57.7882 13.4409 58.0323 13.2 58.3334 13.2H59.3619ZM51.9983 33.3446C53.0926 33.3446 54.0775 33.0992 54.9529 32.6083C55.8483 32.0978 56.5447 31.3812 57.0421 30.4584C57.5594 29.5356 57.818 28.4852 57.818 27.3071C57.818 26.1291 57.5594 25.0786 57.0421 24.1558C56.5447 23.233 55.8483 22.5262 54.9529 22.0354C54.0775 21.5249 53.0926 21.2696 51.9983 21.2696C50.8841 21.2696 49.8794 21.5249 48.984 22.0354C48.1086 22.5262 47.4122 23.233 46.8949 24.1558C46.3975 25.0786 46.1488 26.1291 46.1488 27.3071C46.1488 28.4852 46.3975 29.5356 46.8949 30.4584C47.4122 31.3812 48.1086 32.0978 48.984 32.6083C49.8794 33.0992 50.8841 33.3446 51.9983 33.3446Z" stroke="url(#paint11_linear_204_35)" stroke-width="1.5"/>
<path d="M73.7769 33.3446C74.7519 33.3446 75.6472 33.1777 76.4629 32.8439C77.0987 32.5751 77.6595 32.2153 78.1455 31.7646C78.3884 31.5394 78.7786 31.5357 78.9973 31.7839L79.4711 32.3216C79.6467 32.5208 79.6515 32.8181 79.4667 33.0088C78.8284 33.6675 78.0659 34.1819 77.1792 34.5521C76.1446 34.984 75.0006 35.2 73.7471 35.2C72.1355 35.2 70.7029 34.8662 69.4495 34.1987C68.196 33.5115 67.2211 32.569 66.5247 31.3714C65.8283 30.1737 65.4801 28.8189 65.4801 27.3071C65.4801 25.7953 65.8084 24.4405 66.465 23.2429C67.1415 22.0452 68.0667 21.1126 69.2406 20.445C70.4144 19.7774 71.7475 19.4437 73.2397 19.4437C74.6325 19.4437 75.8859 19.7578 77.0001 20.3861C78.1342 21.0144 79.0296 21.8881 79.6861 23.0072C80.2901 24.0064 80.6403 25.1308 80.7368 26.3804C80.757 26.6428 80.5687 26.8727 80.307 26.9229L68.4658 29.195C68.1467 29.2562 67.9504 29.5787 68.0756 29.8747C68.4952 30.8672 69.1422 31.6704 70.0165 32.2844C71.071 32.9912 72.3245 33.3446 73.7769 33.3446ZM73.2397 21.2402C72.1454 21.2402 71.1606 21.4954 70.2851 22.0059C69.4296 22.4968 68.7531 23.1938 68.2557 24.0969C67.7782 24.9805 67.5394 26.0014 67.5394 27.1599C67.5394 27.1884 67.5395 27.2163 67.5397 27.2434C67.5418 27.5511 67.8258 27.7587 68.1318 27.7L78.1127 25.7886C78.4058 25.7325 78.6013 25.453 78.5229 25.1687C78.2299 24.1058 77.6626 23.2184 76.8211 22.5066C75.8461 21.6623 74.6524 21.2402 73.2397 21.2402Z" stroke="url(#paint12_linear_204_35)" stroke-width="1.5"/>
<path d="M105.905 19.4437C107.875 19.4437 109.417 20.0032 110.531 21.1224C111.665 22.2415 112.232 23.8908 112.232 26.0702V34.5147C112.232 34.8119 111.988 35.0528 111.687 35.0528H110.658C110.357 35.0528 110.113 34.8119 110.113 34.5147V26.2763C110.113 24.6663 109.715 23.4392 108.919 22.5949C108.143 21.7507 107.039 21.3285 105.607 21.3285C103.975 21.3285 102.692 21.8292 101.757 22.8305C100.822 23.8122 100.354 25.1768 100.354 26.9242V34.5147C100.354 34.8119 100.11 35.0528 99.8088 35.0528H98.7802C98.4791 35.0528 98.235 34.8119 98.235 34.5147V26.2763C98.235 24.6663 97.8371 23.4392 97.0412 22.5949C96.2653 21.7507 95.1511 21.3285 93.6986 21.3285C92.087 21.3285 90.8037 21.8292 89.8487 22.8305C88.9136 23.8122 88.446 25.1768 88.446 26.9242V34.5147C88.446 34.8119 88.2019 35.0528 87.9008 35.0528H86.8722C86.5711 35.0528 86.327 34.8119 86.327 34.5147V20.0995C86.327 19.8023 86.5711 19.5615 86.8722 19.5615H87.8113C88.1124 19.5615 88.3565 19.8023 88.3565 20.0995V20.3987C88.3565 20.9479 89.2232 21.2271 89.6531 20.8784C89.9658 20.6247 90.3095 20.4017 90.6843 20.2094C91.6791 19.6989 92.8232 19.4437 94.1165 19.4437C95.4296 19.4437 96.5637 19.7185 97.5187 20.2683C98.1838 20.6433 98.7332 21.1417 99.1668 21.7635C99.4225 22.1302 100.029 22.16 100.316 21.8164C100.818 21.2139 101.438 20.7175 102.174 20.3272C103.269 19.7382 104.512 19.4437 105.905 19.4437Z" stroke="url(#paint13_linear_204_35)" stroke-width="1.5"/>
<path d="M126.005 33.3446C126.98 33.3446 127.876 33.1777 128.691 32.8439C129.327 32.5751 129.888 32.2153 130.374 31.7646C130.617 31.5394 131.007 31.5357 131.226 31.7839L131.7 32.3216C131.875 32.5208 131.88 32.8181 131.695 33.0088C131.057 33.6675 130.294 34.1819 129.408 34.5521C128.373 34.984 127.229 35.2 125.976 35.2C124.364 35.2 122.931 34.8662 121.678 34.1987C120.424 33.5115 119.45 32.569 118.753 31.3714C118.057 30.1737 117.709 28.8189 117.709 27.3071C117.709 25.7953 118.037 24.4405 118.693 23.2429C119.37 22.0452 120.295 21.1126 121.469 20.445C122.643 19.7774 123.976 19.4437 125.468 19.4437C126.861 19.4437 128.114 19.7578 129.229 20.3861C130.363 21.0144 131.258 21.8881 131.915 23.0072C132.519 24.0064 132.869 25.1308 132.965 26.3804C132.985 26.6428 132.797 26.8727 132.535 26.9229L120.694 29.195C120.375 29.2562 120.179 29.5787 120.304 29.8747C120.724 30.8672 121.371 31.6704 122.245 32.2844C123.299 32.9912 124.553 33.3446 126.005 33.3446ZM125.468 21.2402C124.374 21.2402 123.389 21.4954 122.514 22.0059C121.658 22.4968 120.982 23.1938 120.484 24.0969C120.007 24.9805 119.768 26.0014 119.768 27.1599C119.768 27.1884 119.768 27.2163 119.768 27.2434C119.77 27.5511 120.054 27.7587 120.36 27.7L130.341 25.7886C130.634 25.7325 130.83 25.453 130.751 25.1687C130.458 24.1058 129.891 23.2184 129.049 22.5066C128.075 21.6623 126.881 21.2402 125.468 21.2402Z" stroke="url(#paint14_linear_204_35)" stroke-width="1.5"/>
<path d="M146.104 33.7454C146.211 33.9614 146.162 34.2246 145.964 34.3647C145.634 34.5984 145.253 34.7885 144.823 34.935C144.246 35.1117 143.639 35.2 143.002 35.2C141.53 35.2 140.396 34.8073 139.6 34.022C138.804 33.2366 138.406 32.1273 138.406 30.694V16.7126C138.406 16.4155 138.65 16.1746 138.951 16.1746H139.98C140.281 16.1746 140.525 16.4155 140.525 16.7126V19.0234C140.525 19.3206 140.769 19.5615 141.07 19.5615H144.725C145.026 19.5615 145.27 19.8023 145.27 20.0995V20.7905C145.27 21.0877 145.026 21.3285 144.725 21.3285H141.07C140.769 21.3285 140.525 21.5694 140.525 21.8665V30.5762C140.525 31.499 140.754 32.2058 141.212 32.6967C141.669 33.1679 142.336 33.4035 143.211 33.4035C143.878 33.4035 144.457 33.2743 144.949 33.016C145.269 32.8483 145.697 32.9272 145.857 33.2479L146.104 33.7454Z" stroke="url(#paint15_linear_204_35)" stroke-width="1.5"/>
<path d="M153.409 20.1932C153.409 20.7677 154.435 21.0738 154.89 20.7161C155.116 20.5389 155.358 20.3799 155.617 20.2388C156.485 19.7764 157.527 19.5156 158.743 19.4566C159.044 19.442 159.288 19.6845 159.288 19.9817V20.9742C159.288 21.2463 159.056 21.4623 158.781 21.4463C157.13 21.4463 155.836 21.947 154.901 22.9483C153.966 23.9497 153.498 25.3535 153.498 27.1599V34.5147C153.498 34.8119 153.254 35.0528 152.953 35.0528H151.925C151.624 35.0528 151.38 34.8119 151.38 34.5147V20.0995C151.38 19.8023 151.624 19.5615 151.925 19.5615H152.864C153.165 19.5615 153.409 19.8023 153.409 20.0995V20.1932Z" stroke="url(#paint16_linear_204_35)" stroke-width="1.5"/>
<path d="M178.013 19.5615C178.314 19.5615 178.558 19.8023 178.558 20.0995V34.5147C178.558 34.8119 178.314 35.0528 178.013 35.0528H177.074C176.773 35.0528 176.529 34.8119 176.529 34.5147V33.9218C176.529 33.377 175.703 33.1146 175.293 33.4798C174.902 33.8284 174.468 34.127 173.992 34.3754C172.957 34.9251 171.783 35.2 170.47 35.2C168.998 35.2 167.665 34.8662 166.471 34.1987C165.277 33.5311 164.342 32.5985 163.666 31.4008C162.989 30.2031 162.651 28.8386 162.651 27.3071C162.651 25.7756 162.989 24.4111 163.666 23.2134C164.342 22.0157 165.277 21.0929 166.471 20.445C167.665 19.7774 168.998 19.4437 170.47 19.4437C171.744 19.4437 172.888 19.7087 173.902 20.2388C174.391 20.4801 174.838 20.7761 175.242 21.1269C175.65 21.4809 176.439 21.2209 176.439 20.6847V20.0995C176.439 19.8023 176.683 19.5615 176.984 19.5615H178.013ZM170.649 33.3446C171.744 33.3446 172.728 33.0992 173.604 32.6083C174.499 32.0978 175.196 31.3812 175.693 30.4584C176.21 29.5356 176.469 28.4852 176.469 27.3071C176.469 26.1291 176.21 25.0786 175.693 24.1558C175.196 23.233 174.499 22.5262 173.604 22.0354C172.728 21.5249 171.744 21.2696 170.649 21.2696C169.535 21.2696 168.53 21.5249 167.635 22.0354C166.76 22.5262 166.063 23.233 165.546 24.1558C165.048 25.0786 164.8 26.1291 164.8 27.3071C164.8 28.4852 165.048 29.5356 165.546 30.4584C166.063 31.3812 166.76 32.0978 167.635 32.6083C168.53 33.0992 169.535 33.3446 170.649 33.3446Z" stroke="url(#paint17_linear_204_35)" stroke-width="1.5"/>
<path d="M205.291 19.4437C207.261 19.4437 208.803 20.0032 209.917 21.1224C211.051 22.2415 211.618 23.8908 211.618 26.0702V34.5147C211.618 34.8119 211.374 35.0528 211.073 35.0528H210.044C209.743 35.0528 209.499 34.8119 209.499 34.5147V26.2763C209.499 24.6663 209.101 23.4392 208.305 22.5949C207.529 21.7507 206.425 21.3285 204.992 21.3285C203.361 21.3285 202.078 21.8292 201.142 22.8305C200.207 23.8122 199.74 25.1768 199.74 26.9242V34.5147C199.74 34.8119 199.496 35.0528 199.195 35.0528H198.166C197.865 35.0528 197.621 34.8119 197.621 34.5147V26.2763C197.621 24.6663 197.223 23.4392 196.427 22.5949C195.651 21.7507 194.537 21.3285 193.084 21.3285C191.473 21.3285 190.19 21.8292 189.234 22.8305C188.299 23.8122 187.832 25.1768 187.832 26.9242V34.5147C187.832 34.8119 187.588 35.0528 187.287 35.0528H186.258C185.957 35.0528 185.713 34.8119 185.713 34.5147V20.0995C185.713 19.8023 185.957 19.5615 186.258 19.5615H187.197C187.498 19.5615 187.742 19.8023 187.742 20.0995V20.3987C187.742 20.9479 188.609 21.2271 189.039 20.8784C189.352 20.6247 189.695 20.4017 190.07 20.2094C191.065 19.6989 192.209 19.4437 193.502 19.4437C194.815 19.4437 195.95 19.7185 196.905 20.2683C197.57 20.6433 198.119 21.1417 198.553 21.7635C198.808 22.1302 199.415 22.16 199.701 21.8164C200.204 21.2139 200.824 20.7175 201.56 20.3272C202.655 19.7382 203.898 19.4437 205.291 19.4437Z" stroke="url(#paint18_linear_204_35)" stroke-width="1.5"/>
<path d="M225.391 33.3446C226.366 33.3446 227.261 33.1777 228.077 32.8439C228.713 32.5751 229.274 32.2153 229.76 31.7646C230.003 31.5394 230.393 31.5357 230.612 31.7839L231.085 32.3216C231.261 32.5208 231.266 32.8181 231.081 33.0088C230.443 33.6675 229.68 34.1819 228.793 34.5521C227.759 34.984 226.615 35.2 225.361 35.2C223.75 35.2 222.317 34.8662 221.064 34.1987C219.81 33.5115 218.835 32.569 218.139 31.3714C217.443 30.1737 217.094 28.8189 217.094 27.3071C217.094 25.7953 217.423 24.4405 218.079 23.2429C218.756 22.0452 219.681 21.1126 220.855 20.445C222.029 19.7774 223.362 19.4437 224.854 19.4437C226.247 19.4437 227.5 19.7578 228.614 20.3861C229.748 21.0144 230.644 21.8881 231.3 23.0072C231.904 24.0064 232.255 25.1308 232.351 26.3804C232.371 26.6428 232.183 26.8727 231.921 26.9229L220.08 29.195C219.761 29.2562 219.565 29.5787 219.69 29.8747C220.109 30.8672 220.756 31.6704 221.631 32.2844C222.685 32.9912 223.939 33.3446 225.391 33.3446ZM224.854 21.2402C223.76 21.2402 222.775 21.4954 221.899 22.0059C221.044 22.4968 220.367 23.1938 219.87 24.0969C219.392 24.9805 219.154 26.0014 219.154 27.1599C219.154 27.1884 219.154 27.2163 219.154 27.2434C219.156 27.5511 219.44 27.7587 219.746 27.7L229.727 25.7886C230.02 25.7325 230.216 25.453 230.137 25.1687C229.844 24.1058 229.277 23.2184 228.435 22.5066C227.46 21.6623 226.267 21.2402 224.854 21.2402Z" stroke="url(#paint19_linear_204_35)" stroke-width="1.5"/>
<path d="M251.721 13.2C252.023 13.2 252.267 13.4409 252.267 13.738V34.5147C252.267 34.8119 252.023 35.0528 251.721 35.0528H250.782C250.481 35.0528 250.237 34.8119 250.237 34.5147V33.9218C250.237 33.377 249.412 33.1146 249.002 33.4798C248.611 33.8284 248.177 34.127 247.7 34.3754C246.666 34.9251 245.492 35.2 244.179 35.2C242.706 35.2 241.373 34.8662 240.18 34.1987C238.986 33.5311 238.051 32.5985 237.374 31.4008C236.698 30.2031 236.36 28.8386 236.36 27.3071C236.36 25.7756 236.698 24.4111 237.374 23.2134C238.051 22.0157 238.986 21.0929 240.18 20.445C241.373 19.7774 242.706 19.4437 244.179 19.4437C245.452 19.4437 246.596 19.7087 247.611 20.2388C248.1 20.4801 248.546 20.7761 248.951 21.1269C249.359 21.4808 250.148 21.2209 250.148 20.6847V13.738C250.148 13.4409 250.392 13.2 250.693 13.2H251.721ZM244.358 33.3446C245.452 33.3446 246.437 33.0992 247.312 32.6083C248.208 32.0978 248.904 31.3812 249.402 30.4584C249.919 29.5356 250.178 28.4852 250.178 27.3071C250.178 26.1291 249.919 25.0786 249.402 24.1558C248.904 23.233 248.208 22.5262 247.312 22.0354C246.437 21.5249 245.452 21.2696 244.358 21.2696C243.244 21.2696 242.239 21.5249 241.344 22.0354C240.468 22.5262 239.772 23.233 239.254 24.1558C238.757 25.0786 238.508 26.1291 238.508 27.3071C238.508 28.4852 238.757 29.5356 239.254 30.4584C239.772 31.3812 240.468 32.0978 241.344 32.6083C242.239 33.0992 243.244 33.3446 244.358 33.3446Z" stroke="url(#paint20_linear_204_35)" stroke-width="1.5"/>
<defs>
<linearGradient id="paint0_linear_204_35" x1="21.7159" y1="42.1911" x2="20.5699" y2="-19.1168" gradientUnits="userSpaceOnUse">
<stop offset="0.125" stop-color="#9577F5"/>
<stop offset="0.65625" stop-color="#4DD9FF"/>
</linearGradient>
<linearGradient id="paint1_linear_204_35" x1="42.0287" y1="25.9188" x2="258.573" y2="21.0306" gradientUnits="userSpaceOnUse">
<stop offset="0.177083" stop-color="#9577F5"/>
<stop offset="0.864583" stop-color="#44DEFD"/>
</linearGradient>
<linearGradient id="paint2_linear_204_35" x1="42.0287" y1="25.9188" x2="258.573" y2="21.0306" gradientUnits="userSpaceOnUse">
<stop offset="0.177083" stop-color="#9577F5"/>
<stop offset="0.864583" stop-color="#44DEFD"/>
</linearGradient>
<linearGradient id="paint3_linear_204_35" x1="42.0287" y1="25.9188" x2="258.573" y2="21.0306" gradientUnits="userSpaceOnUse">
<stop offset="0.177083" stop-color="#9577F5"/>
<stop offset="0.864583" stop-color="#44DEFD"/>
</linearGradient>
<linearGradient id="paint4_linear_204_35" x1="42.0287" y1="25.9188" x2="258.573" y2="21.0306" gradientUnits="userSpaceOnUse">
<stop offset="0.177083" stop-color="#9577F5"/>
<stop offset="0.864583" stop-color="#44DEFD"/>
</linearGradient>
<linearGradient id="paint5_linear_204_35" x1="42.0287" y1="25.9188" x2="258.573" y2="21.0306" gradientUnits="userSpaceOnUse">
<stop offset="0.177083" stop-color="#9577F5"/>
<stop offset="0.864583" stop-color="#44DEFD"/>
</linearGradient>
<linearGradient id="paint6_linear_204_35" x1="42.0287" y1="25.9188" x2="258.573" y2="21.0306" gradientUnits="userSpaceOnUse">
<stop offset="0.177083" stop-color="#9577F5"/>
<stop offset="0.864583" stop-color="#44DEFD"/>
</linearGradient>
<linearGradient id="paint7_linear_204_35" x1="42.0287" y1="25.9188" x2="258.573" y2="21.0306" gradientUnits="userSpaceOnUse">
<stop offset="0.177083" stop-color="#9577F5"/>
<stop offset="0.864583" stop-color="#44DEFD"/>
</linearGradient>
<linearGradient id="paint8_linear_204_35" x1="42.0287" y1="25.9188" x2="258.573" y2="21.0306" gradientUnits="userSpaceOnUse">
<stop offset="0.177083" stop-color="#9577F5"/>
<stop offset="0.864583" stop-color="#44DEFD"/>
</linearGradient>
<linearGradient id="paint9_linear_204_35" x1="42.0287" y1="25.9188" x2="258.573" y2="21.0306" gradientUnits="userSpaceOnUse">
<stop offset="0.177083" stop-color="#9577F5"/>
<stop offset="0.864583" stop-color="#44DEFD"/>
</linearGradient>
<linearGradient id="paint10_linear_204_35" x1="42.0287" y1="25.9188" x2="258.573" y2="21.0306" gradientUnits="userSpaceOnUse">
<stop offset="0.177083" stop-color="#9577F5"/>
<stop offset="0.864583" stop-color="#44DEFD"/>
</linearGradient>
<linearGradient id="paint11_linear_204_35" x1="42.0287" y1="25.9188" x2="258.573" y2="21.0306" gradientUnits="userSpaceOnUse">
<stop offset="0.177083" stop-color="#9577F5"/>
<stop offset="0.864583" stop-color="#44DEFD"/>
</linearGradient>
<linearGradient id="paint12_linear_204_35" x1="42.0287" y1="25.9188" x2="258.573" y2="21.0306" gradientUnits="userSpaceOnUse">
<stop offset="0.177083" stop-color="#9577F5"/>
<stop offset="0.864583" stop-color="#44DEFD"/>
</linearGradient>
<linearGradient id="paint13_linear_204_35" x1="42.0287" y1="25.9188" x2="258.573" y2="21.0306" gradientUnits="userSpaceOnUse">
<stop offset="0.177083" stop-color="#9577F5"/>
<stop offset="0.864583" stop-color="#44DEFD"/>
</linearGradient>
<linearGradient id="paint14_linear_204_35" x1="42.0287" y1="25.9188" x2="258.573" y2="21.0306" gradientUnits="userSpaceOnUse">
<stop offset="0.177083" stop-color="#9577F5"/>
<stop offset="0.864583" stop-color="#44DEFD"/>
</linearGradient>
<linearGradient id="paint15_linear_204_35" x1="42.0287" y1="25.9188" x2="258.573" y2="21.0306" gradientUnits="userSpaceOnUse">
<stop offset="0.177083" stop-color="#9577F5"/>
<stop offset="0.864583" stop-color="#44DEFD"/>
</linearGradient>
<linearGradient id="paint16_linear_204_35" x1="42.0287" y1="25.9188" x2="258.573" y2="21.0306" gradientUnits="userSpaceOnUse">
<stop offset="0.177083" stop-color="#9577F5"/>
<stop offset="0.864583" stop-color="#44DEFD"/>
</linearGradient>
<linearGradient id="paint17_linear_204_35" x1="42.0287" y1="25.9188" x2="258.573" y2="21.0306" gradientUnits="userSpaceOnUse">
<stop offset="0.177083" stop-color="#9577F5"/>
<stop offset="0.864583" stop-color="#44DEFD"/>
</linearGradient>
<linearGradient id="paint18_linear_204_35" x1="42.0287" y1="25.9188" x2="258.573" y2="21.0306" gradientUnits="userSpaceOnUse">
<stop offset="0.177083" stop-color="#9577F5"/>
<stop offset="0.864583" stop-color="#44DEFD"/>
</linearGradient>
<linearGradient id="paint19_linear_204_35" x1="42.0287" y1="25.9188" x2="258.573" y2="21.0306" gradientUnits="userSpaceOnUse">
<stop offset="0.177083" stop-color="#9577F5"/>
<stop offset="0.864583" stop-color="#44DEFD"/>
</linearGradient>
<linearGradient id="paint20_linear_204_35" x1="42.0287" y1="25.9188" x2="258.573" y2="21.0306" gradientUnits="userSpaceOnUse">
<stop offset="0.177083" stop-color="#9577F5"/>
<stop offset="0.864583" stop-color="#44DEFD"/>
</linearGradient>
</defs>
</svg>
