<svg width="24" height="24" viewBox="0 0 24 24" fill="none" xmlns="http://www.w3.org/2000/svg">
<circle cx="12" cy="12" r="4" fill="white"/>
<circle cx="18" cy="19" r="1" stroke="white" stroke-width="2"/>
<circle cx="19" cy="5" r="3" fill="white"/>
<circle cx="5.5" cy="5.5" r="2.5" fill="white"/>
<circle cx="5.5" cy="18.5" r="3.5" fill="white"/>
<path fill-rule="evenodd" clip-rule="evenodd" d="M9.24269 7.82847L6.70718 5.29297L5.29297 6.70718L7.82847 9.24269C8.20002 8.6817 8.6817 8.20002 9.24269 7.82847ZM16.1717 9.24269C15.8001 8.6817 15.3184 8.20002 14.7575 7.82847L16.293 6.29297L17.7072 7.70718L16.1717 9.24269ZM14.5574 16.2975C15.1376 15.9515 15.6418 15.4913 16.039 14.948L18.7809 18.3754L17.2192 19.6248L14.5574 16.2975ZM7.82847 14.7575C8.20002 15.3184 8.6817 15.8001 9.24269 16.1717L7.70718 17.7072L6.29297 16.293L7.82847 14.7575Z" fill="white"/>
</svg>
