<svg width="34" height="34" viewBox="0 0 34 34" fill="none" xmlns="http://www.w3.org/2000/svg">
<rect x="0.5" y="0.5" width="33" height="33" rx="2.5" stroke="#727F73"/>
<path d="M17.666 10.9999L21.666 8.33325L25.666 12.3333L22.9993 16.3333L17.666 10.9999Z" fill="#DFB39D"/>
<path d="M8.81326 25.5201L9.16608 25.1673L8.81326 25.5201C9.02267 25.7295 9.28373 25.733 9.43846 25.7179C9.57901 25.7041 9.74637 25.6622 9.90307 25.623C9.91199 25.6207 9.92088 25.6185 9.92972 25.6163L13.9172 24.6194C13.9323 24.6156 13.9473 24.6119 13.9622 24.6082C14.1849 24.5528 14.3821 24.5037 14.5611 24.4023C14.7402 24.301 14.8837 24.1571 15.0458 23.9947C15.0567 23.9838 15.0676 23.9729 15.0786 23.9618L25.2727 13.7678L25.296 13.7445C25.6094 13.4311 25.8795 13.1611 26.0666 12.9157C26.2672 12.6528 26.4191 12.3604 26.4191 12C26.4191 11.6396 26.2672 11.3472 26.0666 11.0843C25.8795 10.8389 25.6094 10.5689 25.2959 10.2555L25.2831 10.2426L25.2727 10.2322L24.1011 9.06066L24.0778 9.03739C23.7644 8.72395 23.4944 8.45388 23.2491 8.2667C22.9861 8.0661 22.6937 7.91421 22.3333 7.91421C21.9729 7.91421 21.6805 8.0661 21.4176 8.2667C21.1723 8.45388 20.9022 8.72395 20.5888 9.03738L20.5656 9.06066L10.3715 19.2547C10.3605 19.2658 10.3495 19.2767 10.3387 19.2875C10.1762 19.4496 10.0324 19.5932 9.931 19.7722C9.82963 19.9512 9.78056 20.1484 9.72513 20.3711C9.72142 20.386 9.71769 20.401 9.71391 20.4162L8.71704 24.4036C8.71483 24.4125 8.7126 24.4214 8.71036 24.4303C8.67112 24.587 8.62921 24.7543 8.61546 24.8949C8.60032 25.0496 8.60385 25.3107 8.81326 25.5201Z" stroke="#222222"/>
</svg>
